<?xml version="1.0" encoding="UTF-8" standalone="no"?>
<!DOCTYPE svg PUBLIC "-//W3C//DTD SVG 1.1//EN"
 "http://www.w3.org/Graphics/SVG/1.1/DTD/svg11.dtd">
<!-- Generated by graphviz version 2.43.0 (0)
 -->
<!-- Title: G Pages: 1 -->
<svg width="583pt" height="188pt"
 viewBox="0.00 0.00 582.55 188.00" xmlns="http://www.w3.org/2000/svg" xmlns:xlink="http://www.w3.org/1999/xlink">
<g id="graph0" class="graph" transform="scale(1 1) rotate(0) translate(4 184)">
<title>G</title>
<polygon fill="white" stroke="transparent" points="-4,4 -4,-184 578.55,-184 578.55,4 -4,4"/>
<!-- Boolean -->
<g id="node1" class="node">
<title>Boolean</title>
<ellipse fill="none" stroke="black" cx="190.55" cy="-162" rx="48.19" ry="18"/>
<text text-anchor="middle" x="190.55" y="-158.3" font-family="Times,serif" font-size="14.00">Boolean</text>
</g>
<!-- true -->
<g id="node2" class="node">
<title>true</title>
<ellipse fill="none" stroke="black" cx="30.55" cy="-90" rx="30.59" ry="18"/>
<text text-anchor="middle" x="30.55" y="-86.3" font-family="Times,serif" font-size="14.00">true</text>
</g>
<!-- Boolean&#45;&gt;true -->
<g id="edge1" class="edge">
<title>Boolean&#45;&gt;true</title>
<path fill="none" stroke="black" d="M160.45,-147.83C132.92,-135.79 92.26,-118 63.78,-105.54"/>
<polygon fill="black" stroke="black" points="64.82,-102.18 54.26,-101.37 62.02,-108.59 64.82,-102.18"/>
</g>
<!-- false -->
<g id="node3" class="node">
<title>false</title>
<ellipse fill="none" stroke="black" cx="111.55" cy="-90" rx="32.49" ry="18"/>
<text text-anchor="middle" x="111.55" y="-86.3" font-family="Times,serif" font-size="14.00">false</text>
</g>
<!-- Boolean&#45;&gt;false -->
<g id="edge2" class="edge">
<title>Boolean&#45;&gt;false</title>
<path fill="none" stroke="black" d="M172.62,-145.12C161.75,-135.48 147.72,-123.06 135.86,-112.54"/>
<polygon fill="black" stroke="black" points="137.86,-109.64 128.06,-105.63 133.22,-114.88 137.86,-109.64"/>
</g>
<!-- And -->
<g id="node4" class="node">
<title>And</title>
<ellipse fill="none" stroke="black" cx="190.55" cy="-90" rx="28.7" ry="18"/>
<text text-anchor="middle" x="190.55" y="-86.3" font-family="Times,serif" font-size="14.00">And</text>
</g>
<!-- Boolean&#45;&gt;And -->
<g id="edge3" class="edge">
<title>Boolean&#45;&gt;And</title>
<path fill="none" stroke="black" d="M190.55,-143.7C190.55,-135.98 190.55,-126.71 190.55,-118.11"/>
<polygon fill="black" stroke="black" points="194.05,-118.1 190.55,-108.1 187.05,-118.1 194.05,-118.1"/>
</g>
<!-- Or -->
<g id="node5" class="node">
<title>Or</title>
<ellipse fill="none" stroke="black" cx="264.55" cy="-90" rx="27" ry="18"/>
<text text-anchor="middle" x="264.55" y="-86.3" font-family="Times,serif" font-size="14.00">Or</text>
</g>
<!-- Boolean&#45;&gt;Or -->
<g id="edge4" class="edge">
<title>Boolean&#45;&gt;Or</title>
<path fill="none" stroke="black" d="M207.34,-145.12C217.59,-135.41 230.84,-122.89 242,-112.33"/>
<polygon fill="black" stroke="black" points="244.47,-114.81 249.33,-105.39 239.66,-109.72 244.47,-114.81"/>
</g>
<!-- Relational -->
<g id="node6" class="node">
<title>Relational</title>
<ellipse fill="none" stroke="black" cx="367.55" cy="-90" rx="57.69" ry="18"/>
<text text-anchor="middle" x="367.55" y="-86.3" font-family="Times,serif" font-size="14.00">Relational</text>
</g>
<!-- Boolean&#45;&gt;Relational -->
<g id="edge5" class="edge">
<title>Boolean&#45;&gt;Relational</title>
<path fill="none" stroke="black" d="M222.6,-148.32C250.95,-137.11 292.56,-120.66 323.93,-108.25"/>
<polygon fill="black" stroke="black" points="325.3,-111.47 333.32,-104.54 322.73,-104.96 325.3,-111.47"/>
</g>
<!-- Eq -->
<g id="node7" class="node">
<title>Eq</title>
<ellipse fill="none" stroke="black" cx="187.55" cy="-18" rx="27" ry="18"/>
<text text-anchor="middle" x="187.55" y="-14.3" font-family="Times,serif" font-size="14.00">Eq</text>
</g>
<!-- Relational&#45;&gt;Eq -->
<g id="edge6" class="edge">
<title>Relational&#45;&gt;Eq</title>
<path fill="none" stroke="black" d="M329.9,-76.17C300.64,-65.95 259.17,-50.93 223.55,-36 221.73,-35.24 219.87,-34.44 218,-33.61"/>
<polygon fill="black" stroke="black" points="219.28,-30.35 208.73,-29.38 216.38,-36.71 219.28,-30.35"/>
</g>
<!-- Ne -->
<g id="node8" class="node">
<title>Ne</title>
<ellipse fill="none" stroke="black" cx="259.55" cy="-18" rx="27" ry="18"/>
<text text-anchor="middle" x="259.55" y="-14.3" font-family="Times,serif" font-size="14.00">Ne</text>
</g>
<!-- Relational&#45;&gt;Ne -->
<g id="edge7" class="edge">
<title>Relational&#45;&gt;Ne</title>
<path fill="none" stroke="black" d="M343.58,-73.46C326.86,-62.63 304.5,-48.14 287.05,-36.83"/>
<polygon fill="black" stroke="black" points="288.72,-33.74 278.43,-31.24 284.92,-39.61 288.72,-33.74"/>
</g>
<!-- Lt -->
<g id="node9" class="node">
<title>Lt</title>
<ellipse fill="none" stroke="black" cx="331.55" cy="-18" rx="27" ry="18"/>
<text text-anchor="middle" x="331.55" y="-14.3" font-family="Times,serif" font-size="14.00">Lt</text>
</g>
<!-- Relational&#45;&gt;Lt -->
<g id="edge8" class="edge">
<title>Relational&#45;&gt;Lt</title>
<path fill="none" stroke="black" d="M358.83,-72.05C354.57,-63.77 349.35,-53.62 344.62,-44.42"/>
<polygon fill="black" stroke="black" points="347.62,-42.6 339.93,-35.31 341.39,-45.8 347.62,-42.6"/>
</g>
<!-- Le -->
<g id="node10" class="node">
<title>Le</title>
<ellipse fill="none" stroke="black" cx="403.55" cy="-18" rx="27" ry="18"/>
<text text-anchor="middle" x="403.55" y="-14.3" font-family="Times,serif" font-size="14.00">Le</text>
</g>
<!-- Relational&#45;&gt;Le -->
<g id="edge9" class="edge">
<title>Relational&#45;&gt;Le</title>
<path fill="none" stroke="black" d="M376.26,-72.05C380.52,-63.77 385.74,-53.62 390.47,-44.42"/>
<polygon fill="black" stroke="black" points="393.7,-45.8 395.16,-35.31 387.47,-42.6 393.7,-45.8"/>
</g>
<!-- Gt -->
<g id="node11" class="node">
<title>Gt</title>
<ellipse fill="none" stroke="black" cx="475.55" cy="-18" rx="27" ry="18"/>
<text text-anchor="middle" x="475.55" y="-14.3" font-family="Times,serif" font-size="14.00">Gt</text>
</g>
<!-- Relational&#45;&gt;Gt -->
<g id="edge10" class="edge">
<title>Relational&#45;&gt;Gt</title>
<path fill="none" stroke="black" d="M391.52,-73.46C408.24,-62.63 430.59,-48.14 448.04,-36.83"/>
<polygon fill="black" stroke="black" points="450.18,-39.61 456.67,-31.24 446.37,-33.74 450.18,-39.61"/>
</g>
<!-- Ge -->
<g id="node12" class="node">
<title>Ge</title>
<ellipse fill="none" stroke="black" cx="547.55" cy="-18" rx="27" ry="18"/>
<text text-anchor="middle" x="547.55" y="-14.3" font-family="Times,serif" font-size="14.00">Ge</text>
</g>
<!-- Relational&#45;&gt;Ge -->
<g id="edge11" class="edge">
<title>Relational&#45;&gt;Ge</title>
<path fill="none" stroke="black" d="M405.2,-76.17C434.46,-65.95 475.92,-50.93 511.55,-36 513.36,-35.24 515.22,-34.44 517.09,-33.61"/>
<polygon fill="black" stroke="black" points="518.72,-36.71 526.37,-29.38 515.82,-30.35 518.72,-36.71"/>
</g>
</g>
</svg>
