<?xml version="1.0" encoding="UTF-8" standalone="no"?>
<!DOCTYPE svg PUBLIC "-//W3C//DTD SVG 1.1//EN"
 "http://www.w3.org/Graphics/SVG/1.1/DTD/svg11.dtd">
<!-- Generated by graphviz version 2.43.0 (0)
 -->
<!-- Title: %3 Pages: 1 -->
<svg width="172pt" height="260pt"
 viewBox="0.00 0.00 172.00 260.00" xmlns="http://www.w3.org/2000/svg" xmlns:xlink="http://www.w3.org/1999/xlink">
<g id="graph0" class="graph" transform="scale(1 1) rotate(0) translate(4 256)">
<title>%3</title>
<polygon fill="white" stroke="transparent" points="-4,4 -4,-256 168,-256 168,4 -4,4"/>
<!-- Pow(Add(Integer(1), cos(Symbol(&#39;x&#39;))), Integer(2))_() -->
<g id="node1" class="node">
<title>Pow(Add(Integer(1), cos(Symbol(&#39;x&#39;))), Integer(2))_()</title>
<ellipse fill="none" stroke="black" cx="100" cy="-234" rx="29.8" ry="18"/>
<text text-anchor="middle" x="100" y="-230.3" font-family="Times,serif" font-size="14.00">Pow</text>
</g>
<!-- Add(Integer(1), cos(Symbol(&#39;x&#39;)))_(0,) -->
<g id="node2" class="node">
<title>Add(Integer(1), cos(Symbol(&#39;x&#39;)))_(0,)</title>
<ellipse fill="none" stroke="black" cx="63" cy="-162" rx="28.7" ry="18"/>
<text text-anchor="middle" x="63" y="-158.3" font-family="Times,serif" font-size="14.00">Add</text>
</g>
<!-- Pow(Add(Integer(1), cos(Symbol(&#39;x&#39;))), Integer(2))_()&#45;&gt;Add(Integer(1), cos(Symbol(&#39;x&#39;)))_(0,) -->
<g id="edge1" class="edge">
<title>Pow(Add(Integer(1), cos(Symbol(&#39;x&#39;))), Integer(2))_()&#45;&gt;Add(Integer(1), cos(Symbol(&#39;x&#39;)))_(0,)</title>
<path fill="none" stroke="black" d="M91.23,-216.41C86.81,-208.04 81.35,-197.71 76.41,-188.37"/>
<polygon fill="black" stroke="black" points="79.47,-186.68 71.71,-179.47 73.28,-189.95 79.47,-186.68"/>
</g>
<!-- Integer(2)_(1,) -->
<g id="node6" class="node">
<title>Integer(2)_(1,)</title>
<ellipse fill="none" stroke="black" cx="137" cy="-162" rx="27" ry="18"/>
<text text-anchor="middle" x="137" y="-158.3" font-family="Times,serif" font-size="14.00">2</text>
</g>
<!-- Pow(Add(Integer(1), cos(Symbol(&#39;x&#39;))), Integer(2))_()&#45;&gt;Integer(2)_(1,) -->
<g id="edge2" class="edge">
<title>Pow(Add(Integer(1), cos(Symbol(&#39;x&#39;))), Integer(2))_()&#45;&gt;Integer(2)_(1,)</title>
<path fill="none" stroke="black" d="M108.77,-216.41C113.19,-208.04 118.65,-197.71 123.59,-188.37"/>
<polygon fill="black" stroke="black" points="126.72,-189.95 128.29,-179.47 120.53,-186.68 126.72,-189.95"/>
</g>
<!-- Integer(1)_(0, 0) -->
<g id="node3" class="node">
<title>Integer(1)_(0, 0)</title>
<ellipse fill="none" stroke="black" cx="27" cy="-90" rx="27" ry="18"/>
<text text-anchor="middle" x="27" y="-86.3" font-family="Times,serif" font-size="14.00">1</text>
</g>
<!-- Add(Integer(1), cos(Symbol(&#39;x&#39;)))_(0,)&#45;&gt;Integer(1)_(0, 0) -->
<g id="edge3" class="edge">
<title>Add(Integer(1), cos(Symbol(&#39;x&#39;)))_(0,)&#45;&gt;Integer(1)_(0, 0)</title>
<path fill="none" stroke="black" d="M54.65,-144.76C50.29,-136.28 44.85,-125.71 39.96,-116.2"/>
<polygon fill="black" stroke="black" points="42.99,-114.44 35.3,-107.15 36.77,-117.64 42.99,-114.44"/>
</g>
<!-- cos(Symbol(&#39;x&#39;))_(0, 1) -->
<g id="node4" class="node">
<title>cos(Symbol(&#39;x&#39;))_(0, 1)</title>
<ellipse fill="none" stroke="black" cx="99" cy="-90" rx="27" ry="18"/>
<text text-anchor="middle" x="99" y="-86.3" font-family="Times,serif" font-size="14.00">cos</text>
</g>
<!-- Add(Integer(1), cos(Symbol(&#39;x&#39;)))_(0,)&#45;&gt;cos(Symbol(&#39;x&#39;))_(0, 1) -->
<g id="edge4" class="edge">
<title>Add(Integer(1), cos(Symbol(&#39;x&#39;)))_(0,)&#45;&gt;cos(Symbol(&#39;x&#39;))_(0, 1)</title>
<path fill="none" stroke="black" d="M71.35,-144.76C75.71,-136.28 81.15,-125.71 86.04,-116.2"/>
<polygon fill="black" stroke="black" points="89.23,-117.64 90.7,-107.15 83.01,-114.44 89.23,-117.64"/>
</g>
<!-- Symbol(&#39;x&#39;)_(0, 1, 0) -->
<g id="node5" class="node">
<title>Symbol(&#39;x&#39;)_(0, 1, 0)</title>
<ellipse fill="none" stroke="black" cx="99" cy="-18" rx="27" ry="18"/>
<text text-anchor="middle" x="99" y="-14.3" font-family="Times,serif" font-size="14.00">x</text>
</g>
<!-- cos(Symbol(&#39;x&#39;))_(0, 1)&#45;&gt;Symbol(&#39;x&#39;)_(0, 1, 0) -->
<g id="edge5" class="edge">
<title>cos(Symbol(&#39;x&#39;))_(0, 1)&#45;&gt;Symbol(&#39;x&#39;)_(0, 1, 0)</title>
<path fill="none" stroke="black" d="M99,-71.7C99,-63.98 99,-54.71 99,-46.11"/>
<polygon fill="black" stroke="black" points="102.5,-46.1 99,-36.1 95.5,-46.1 102.5,-46.1"/>
</g>
</g>
</svg>
