<?xml version="1.0" encoding="UTF-8" standalone="no"?>
<!DOCTYPE svg PUBLIC "-//W3C//DTD SVG 1.1//EN"
 "http://www.w3.org/Graphics/SVG/1.1/DTD/svg11.dtd">
<!-- Generated by graphviz version 2.43.0 (0)
 -->
<!-- Title: %3 Pages: 1 -->
<svg width="447pt" height="260pt"
 viewBox="0.00 0.00 446.89 260.00" xmlns="http://www.w3.org/2000/svg" xmlns:xlink="http://www.w3.org/1999/xlink">
<g id="graph0" class="graph" transform="scale(1 1) rotate(0) translate(4 256)">
<title>%3</title>
<polygon fill="white" stroke="transparent" points="-4,4 -4,-256 442.89,-256 442.89,4 -4,4"/>
<!-- Integral(ImmutableDenseMatrix(Integer(2), Integer(2), Tuple(Integer(1), Integer(2), Symbol(&#39;x&#39;), Integer(4))), Tuple(Symbol(&#39;x&#39;), Integer(0), Integer(1)))_() -->
<g id="node1" class="node">
<title>Integral(ImmutableDenseMatrix(Integer(2), Integer(2), Tuple(Integer(1), Integer(2), Symbol(&#39;x&#39;), Integer(4))), Tuple(Symbol(&#39;x&#39;), Integer(0), Integer(1)))_()</title>
<ellipse fill="none" stroke="black" cx="222.89" cy="-234" rx="48.19" ry="18"/>
<text text-anchor="middle" x="222.89" y="-230.3" font-family="Times,serif" font-size="14.00">Integral</text>
</g>
<!-- ImmutableDenseMatrix(Integer(2), Integer(2), Tuple(Integer(1), Integer(2), Symbol(&#39;x&#39;), Integer(4)))_(0,) -->
<g id="node2" class="node">
<title>ImmutableDenseMatrix(Integer(2), Integer(2), Tuple(Integer(1), Integer(2), Symbol(&#39;x&#39;), Integer(4)))_(0,)</title>
<ellipse fill="none" stroke="black" cx="120.89" cy="-162" rx="120.78" ry="18"/>
<text text-anchor="middle" x="120.89" y="-158.3" font-family="Times,serif" font-size="14.00">ImmutableDenseMatrix</text>
</g>
<!-- Integral(ImmutableDenseMatrix(Integer(2), Integer(2), Tuple(Integer(1), Integer(2), Symbol(&#39;x&#39;), Integer(4))), Tuple(Symbol(&#39;x&#39;), Integer(0), Integer(1)))_()&#45;&gt;ImmutableDenseMatrix(Integer(2), Integer(2), Tuple(Integer(1), Integer(2), Symbol(&#39;x&#39;), Integer(4)))_(0,) -->
<g id="edge1" class="edge">
<title>Integral(ImmutableDenseMatrix(Integer(2), Integer(2), Tuple(Integer(1), Integer(2), Symbol(&#39;x&#39;), Integer(4))), Tuple(Symbol(&#39;x&#39;), Integer(0), Integer(1)))_()&#45;&gt;ImmutableDenseMatrix(Integer(2), Integer(2), Tuple(Integer(1), Integer(2), Symbol(&#39;x&#39;), Integer(4)))_(0,)</title>
<path fill="none" stroke="black" d="M200.76,-217.81C187.14,-208.47 169.43,-196.31 154.15,-185.83"/>
<polygon fill="black" stroke="black" points="155.71,-182.65 145.48,-179.88 151.75,-188.42 155.71,-182.65"/>
</g>
<!-- Tuple(Symbol(&#39;x&#39;), Integer(0), Integer(1))_(1,) -->
<g id="node10" class="node">
<title>Tuple(Symbol(&#39;x&#39;), Integer(0), Integer(1))_(1,)</title>
<ellipse fill="none" stroke="blue" cx="324.89" cy="-162" rx="36.29" ry="18"/>
<text text-anchor="middle" x="324.89" y="-158.3" font-family="Times,serif" font-size="14.00">Tuple</text>
</g>
<!-- Integral(ImmutableDenseMatrix(Integer(2), Integer(2), Tuple(Integer(1), Integer(2), Symbol(&#39;x&#39;), Integer(4))), Tuple(Symbol(&#39;x&#39;), Integer(0), Integer(1)))_()&#45;&gt;Tuple(Symbol(&#39;x&#39;), Integer(0), Integer(1))_(1,) -->
<g id="edge2" class="edge">
<title>Integral(ImmutableDenseMatrix(Integer(2), Integer(2), Tuple(Integer(1), Integer(2), Symbol(&#39;x&#39;), Integer(4))), Tuple(Symbol(&#39;x&#39;), Integer(0), Integer(1)))_()&#45;&gt;Tuple(Symbol(&#39;x&#39;), Integer(0), Integer(1))_(1,)</title>
<path fill="none" stroke="black" d="M245.02,-217.81C259.95,-207.57 279.8,-193.94 295.98,-182.84"/>
<polygon fill="black" stroke="black" points="298.27,-185.51 304.53,-176.97 294.31,-179.74 298.27,-185.51"/>
</g>
<!-- Integer(2)_(0, 0) -->
<g id="node3" class="node">
<title>Integer(2)_(0, 0)</title>
<ellipse fill="none" stroke="black" cx="33.89" cy="-90" rx="27" ry="18"/>
<text text-anchor="middle" x="33.89" y="-86.3" font-family="Times,serif" font-size="14.00">2</text>
</g>
<!-- ImmutableDenseMatrix(Integer(2), Integer(2), Tuple(Integer(1), Integer(2), Symbol(&#39;x&#39;), Integer(4)))_(0,)&#45;&gt;Integer(2)_(0, 0) -->
<g id="edge3" class="edge">
<title>ImmutableDenseMatrix(Integer(2), Integer(2), Tuple(Integer(1), Integer(2), Symbol(&#39;x&#39;), Integer(4)))_(0,)&#45;&gt;Integer(2)_(0, 0)</title>
<path fill="none" stroke="black" d="M99.83,-144.05C87.37,-134.03 71.53,-121.29 58.5,-110.8"/>
<polygon fill="black" stroke="black" points="60.39,-107.83 50.4,-104.29 56,-113.28 60.39,-107.83"/>
</g>
<!-- Integer(2)_(0, 1) -->
<g id="node4" class="node">
<title>Integer(2)_(0, 1)</title>
<ellipse fill="none" stroke="black" cx="105.89" cy="-90" rx="27" ry="18"/>
<text text-anchor="middle" x="105.89" y="-86.3" font-family="Times,serif" font-size="14.00">2</text>
</g>
<!-- ImmutableDenseMatrix(Integer(2), Integer(2), Tuple(Integer(1), Integer(2), Symbol(&#39;x&#39;), Integer(4)))_(0,)&#45;&gt;Integer(2)_(0, 1) -->
<g id="edge4" class="edge">
<title>ImmutableDenseMatrix(Integer(2), Integer(2), Tuple(Integer(1), Integer(2), Symbol(&#39;x&#39;), Integer(4)))_(0,)&#45;&gt;Integer(2)_(0, 1)</title>
<path fill="none" stroke="black" d="M117.18,-143.7C115.53,-135.98 113.54,-126.71 111.7,-118.11"/>
<polygon fill="black" stroke="black" points="115.07,-117.15 109.55,-108.1 108.23,-118.62 115.07,-117.15"/>
</g>
<!-- Tuple(Integer(1), Integer(2), Symbol(&#39;x&#39;), Integer(4))_(0, 2) -->
<g id="node5" class="node">
<title>Tuple(Integer(1), Integer(2), Symbol(&#39;x&#39;), Integer(4))_(0, 2)</title>
<ellipse fill="none" stroke="blue" cx="186.89" cy="-90" rx="36.29" ry="18"/>
<text text-anchor="middle" x="186.89" y="-86.3" font-family="Times,serif" font-size="14.00">Tuple</text>
</g>
<!-- ImmutableDenseMatrix(Integer(2), Integer(2), Tuple(Integer(1), Integer(2), Symbol(&#39;x&#39;), Integer(4)))_(0,)&#45;&gt;Tuple(Integer(1), Integer(2), Symbol(&#39;x&#39;), Integer(4))_(0, 2) -->
<g id="edge5" class="edge">
<title>ImmutableDenseMatrix(Integer(2), Integer(2), Tuple(Integer(1), Integer(2), Symbol(&#39;x&#39;), Integer(4)))_(0,)&#45;&gt;Tuple(Integer(1), Integer(2), Symbol(&#39;x&#39;), Integer(4))_(0, 2)</title>
<path fill="none" stroke="black" d="M136.87,-144.05C145.29,-135.12 155.76,-124.01 164.94,-114.28"/>
<polygon fill="black" stroke="black" points="167.65,-116.51 171.96,-106.83 162.56,-111.7 167.65,-116.51"/>
</g>
<!-- Integer(1)_(0, 2, 0) -->
<g id="node6" class="node">
<title>Integer(1)_(0, 2, 0)</title>
<ellipse fill="none" stroke="black" cx="78.89" cy="-18" rx="27" ry="18"/>
<text text-anchor="middle" x="78.89" y="-14.3" font-family="Times,serif" font-size="14.00">1</text>
</g>
<!-- Tuple(Integer(1), Integer(2), Symbol(&#39;x&#39;), Integer(4))_(0, 2)&#45;&gt;Integer(1)_(0, 2, 0) -->
<g id="edge6" class="edge">
<title>Tuple(Integer(1), Integer(2), Symbol(&#39;x&#39;), Integer(4))_(0, 2)&#45;&gt;Integer(1)_(0, 2, 0)</title>
<path fill="none" stroke="black" d="M165.55,-75.17C148.54,-64.14 124.6,-48.63 106.2,-36.7"/>
<polygon fill="black" stroke="black" points="107.95,-33.67 97.66,-31.16 104.14,-39.54 107.95,-33.67"/>
</g>
<!-- Integer(2)_(0, 2, 1) -->
<g id="node7" class="node">
<title>Integer(2)_(0, 2, 1)</title>
<ellipse fill="none" stroke="black" cx="150.89" cy="-18" rx="27" ry="18"/>
<text text-anchor="middle" x="150.89" y="-14.3" font-family="Times,serif" font-size="14.00">2</text>
</g>
<!-- Tuple(Integer(1), Integer(2), Symbol(&#39;x&#39;), Integer(4))_(0, 2)&#45;&gt;Integer(2)_(0, 2, 1) -->
<g id="edge7" class="edge">
<title>Tuple(Integer(1), Integer(2), Symbol(&#39;x&#39;), Integer(4))_(0, 2)&#45;&gt;Integer(2)_(0, 2, 1)</title>
<path fill="none" stroke="black" d="M178.36,-72.41C174.05,-64.04 168.74,-53.71 163.94,-44.37"/>
<polygon fill="black" stroke="black" points="167.05,-42.76 159.36,-35.47 160.82,-45.96 167.05,-42.76"/>
</g>
<!-- Symbol(&#39;x&#39;)_(0, 2, 2) -->
<g id="node8" class="node">
<title>Symbol(&#39;x&#39;)_(0, 2, 2)</title>
<ellipse fill="none" stroke="black" cx="222.89" cy="-18" rx="27" ry="18"/>
<text text-anchor="middle" x="222.89" y="-14.3" font-family="Times,serif" font-size="14.00">x</text>
</g>
<!-- Tuple(Integer(1), Integer(2), Symbol(&#39;x&#39;), Integer(4))_(0, 2)&#45;&gt;Symbol(&#39;x&#39;)_(0, 2, 2) -->
<g id="edge8" class="edge">
<title>Tuple(Integer(1), Integer(2), Symbol(&#39;x&#39;), Integer(4))_(0, 2)&#45;&gt;Symbol(&#39;x&#39;)_(0, 2, 2)</title>
<path fill="none" stroke="black" d="M195.42,-72.41C199.72,-64.04 205.04,-53.71 209.84,-44.37"/>
<polygon fill="black" stroke="black" points="212.96,-45.96 214.42,-35.47 206.73,-42.76 212.96,-45.96"/>
</g>
<!-- Integer(4)_(0, 2, 3) -->
<g id="node9" class="node">
<title>Integer(4)_(0, 2, 3)</title>
<ellipse fill="none" stroke="black" cx="294.89" cy="-18" rx="27" ry="18"/>
<text text-anchor="middle" x="294.89" y="-14.3" font-family="Times,serif" font-size="14.00">4</text>
</g>
<!-- Tuple(Integer(1), Integer(2), Symbol(&#39;x&#39;), Integer(4))_(0, 2)&#45;&gt;Integer(4)_(0, 2, 3) -->
<g id="edge9" class="edge">
<title>Tuple(Integer(1), Integer(2), Symbol(&#39;x&#39;), Integer(4))_(0, 2)&#45;&gt;Integer(4)_(0, 2, 3)</title>
<path fill="none" stroke="black" d="M208.23,-75.17C225.24,-64.14 249.18,-48.63 267.58,-36.7"/>
<polygon fill="black" stroke="black" points="269.63,-39.54 276.12,-31.16 265.83,-33.67 269.63,-39.54"/>
</g>
<!-- Symbol(&#39;x&#39;)_(1, 0) -->
<g id="node11" class="node">
<title>Symbol(&#39;x&#39;)_(1, 0)</title>
<ellipse fill="none" stroke="black" cx="267.89" cy="-90" rx="27" ry="18"/>
<text text-anchor="middle" x="267.89" y="-86.3" font-family="Times,serif" font-size="14.00">x</text>
</g>
<!-- Tuple(Symbol(&#39;x&#39;), Integer(0), Integer(1))_(1,)&#45;&gt;Symbol(&#39;x&#39;)_(1, 0) -->
<g id="edge10" class="edge">
<title>Tuple(Symbol(&#39;x&#39;), Integer(0), Integer(1))_(1,)&#45;&gt;Symbol(&#39;x&#39;)_(1, 0)</title>
<path fill="none" stroke="black" d="M311.96,-145.12C304.56,-136.04 295.16,-124.49 286.94,-114.39"/>
<polygon fill="black" stroke="black" points="289.41,-111.88 280.38,-106.34 283.98,-116.3 289.41,-111.88"/>
</g>
<!-- Integer(0)_(1, 1) -->
<g id="node12" class="node">
<title>Integer(0)_(1, 1)</title>
<ellipse fill="none" stroke="black" cx="339.89" cy="-90" rx="27" ry="18"/>
<text text-anchor="middle" x="339.89" y="-86.3" font-family="Times,serif" font-size="14.00">0</text>
</g>
<!-- Tuple(Symbol(&#39;x&#39;), Integer(0), Integer(1))_(1,)&#45;&gt;Integer(0)_(1, 1) -->
<g id="edge11" class="edge">
<title>Tuple(Symbol(&#39;x&#39;), Integer(0), Integer(1))_(1,)&#45;&gt;Integer(0)_(1, 1)</title>
<path fill="none" stroke="black" d="M328.52,-144.05C330.19,-136.26 332.21,-126.82 334.09,-118.08"/>
<polygon fill="black" stroke="black" points="337.51,-118.79 336.19,-108.28 330.67,-117.32 337.51,-118.79"/>
</g>
<!-- Integer(1)_(1, 2) -->
<g id="node13" class="node">
<title>Integer(1)_(1, 2)</title>
<ellipse fill="none" stroke="black" cx="411.89" cy="-90" rx="27" ry="18"/>
<text text-anchor="middle" x="411.89" y="-86.3" font-family="Times,serif" font-size="14.00">1</text>
</g>
<!-- Tuple(Symbol(&#39;x&#39;), Integer(0), Integer(1))_(1,)&#45;&gt;Integer(1)_(1, 2) -->
<g id="edge12" class="edge">
<title>Tuple(Symbol(&#39;x&#39;), Integer(0), Integer(1))_(1,)&#45;&gt;Integer(1)_(1, 2)</title>
<path fill="none" stroke="black" d="M343.34,-146.15C356.18,-135.82 373.44,-121.93 387.43,-110.68"/>
<polygon fill="black" stroke="black" points="389.63,-113.4 395.23,-104.4 385.25,-107.95 389.63,-113.4"/>
</g>
</g>
</svg>
