<?xml version="1.0" encoding="UTF-8" standalone="no"?>
<!DOCTYPE svg PUBLIC "-//W3C//DTD SVG 1.1//EN"
 "http://www.w3.org/Graphics/SVG/1.1/DTD/svg11.dtd">
<!-- Generated by graphviz version 2.43.0 (0)
 -->
<!-- Title: g Pages: 1 -->
<svg width="364pt" height="482pt"
 viewBox="0.00 0.00 363.50 482.00" xmlns="http://www.w3.org/2000/svg" xmlns:xlink="http://www.w3.org/1999/xlink">
<g id="graph0" class="graph" transform="scale(1 1) rotate(0) translate(4 478)">
<title>g</title>
<polygon fill="white" stroke="transparent" points="-4,4 -4,-478 359.5,-478 359.5,4 -4,4"/>
<!-- node0 -->
<g id="node1" class="node">
<title>node0</title>
<ellipse fill="none" stroke="black" cx="27" cy="-18" rx="27" ry="18"/>
<text text-anchor="middle" x="27" y="-14.3" font-family="Times,serif" font-size="14.00">&#45;1</text>
</g>
<!-- node1 -->
<g id="node2" class="node">
<title>node1</title>
<ellipse fill="none" stroke="black" cx="175" cy="-18" rx="27" ry="18"/>
<text text-anchor="middle" x="175" y="-14.3" font-family="Times,serif" font-size="14.00">x</text>
</g>
<!-- node2 -->
<g id="node3" class="node">
<title>node2</title>
<ellipse fill="none" stroke="black" cx="103" cy="-18" rx="27" ry="18"/>
<text text-anchor="middle" x="103" y="-14.3" font-family="Times,serif" font-size="14.00">1</text>
</g>
<!-- node3 -->
<g id="node4" class="node">
<title>node3</title>
<polygon fill="none" stroke="black" points="157.5,-72.5 157.5,-108.5 218.5,-108.5 218.5,-72.5 157.5,-72.5"/>
<text text-anchor="middle" x="177.5" y="-86.8" font-family="Times,serif" font-size="14.00">tan</text>
<polyline fill="none" stroke="black" points="197.5,-72.5 197.5,-108.5 "/>
<text text-anchor="middle" x="208" y="-86.8" font-family="Times,serif" font-size="14.00"> </text>
</g>
<!-- node3&#45;&gt;node1 -->
<g id="edge1" class="edge">
<title>node3:f0&#45;&gt;node1</title>
<path fill="none" stroke="black" d="M208,-72C208,-60.83 202.65,-50.06 196.26,-41.19"/>
<polygon fill="black" stroke="black" points="198.93,-38.92 189.96,-33.3 193.47,-43.3 198.93,-38.92"/>
</g>
<!-- node4 -->
<g id="node5" class="node">
<title>node4</title>
<ellipse fill="none" stroke="black" cx="247" cy="-18" rx="27" ry="18"/>
<text text-anchor="middle" x="247" y="-14.3" font-family="Times,serif" font-size="14.00">2</text>
</g>
<!-- node5 -->
<g id="node6" class="node">
<title>node5</title>
<polygon fill="none" stroke="black" points="131,-145.5 131,-181.5 219,-181.5 219,-145.5 131,-145.5"/>
<text text-anchor="middle" x="154" y="-159.8" font-family="Times,serif" font-size="14.00">Pow</text>
<polyline fill="none" stroke="black" points="177,-145.5 177,-181.5 "/>
<text text-anchor="middle" x="187.5" y="-159.8" font-family="Times,serif" font-size="14.00"> </text>
<polyline fill="none" stroke="black" points="198,-145.5 198,-181.5 "/>
<text text-anchor="middle" x="208.5" y="-159.8" font-family="Times,serif" font-size="14.00"> </text>
</g>
<!-- node5&#45;&gt;node3 -->
<g id="edge2" class="edge">
<title>node5:f0&#45;&gt;node3</title>
<path fill="none" stroke="black" d="M188,-145C188,-136.51 188,-127.26 188,-118.88"/>
<polygon fill="black" stroke="black" points="191.5,-118.85 188,-108.85 184.5,-118.85 191.5,-118.85"/>
</g>
<!-- node5&#45;&gt;node4 -->
<g id="edge3" class="edge">
<title>node5:f1&#45;&gt;node4</title>
<path fill="none" stroke="black" d="M209,-145C209,-127.11 221.01,-125.86 227,-109 234.34,-88.32 239.56,-63.98 242.82,-45.83"/>
<polygon fill="black" stroke="black" points="246.27,-46.38 244.51,-35.93 239.37,-45.2 246.27,-46.38"/>
</g>
<!-- node6 -->
<g id="node7" class="node">
<title>node6</title>
<polygon fill="none" stroke="black" points="93,-218.5 93,-254.5 179,-254.5 179,-218.5 93,-218.5"/>
<text text-anchor="middle" x="115" y="-232.8" font-family="Times,serif" font-size="14.00">Add</text>
<polyline fill="none" stroke="black" points="137,-218.5 137,-254.5 "/>
<text text-anchor="middle" x="147.5" y="-232.8" font-family="Times,serif" font-size="14.00"> </text>
<polyline fill="none" stroke="black" points="158,-218.5 158,-254.5 "/>
<text text-anchor="middle" x="168.5" y="-232.8" font-family="Times,serif" font-size="14.00"> </text>
</g>
<!-- node6&#45;&gt;node2 -->
<g id="edge4" class="edge">
<title>node6:f0&#45;&gt;node2</title>
<path fill="none" stroke="black" d="M148,-218C148,-198.26 129.15,-200.4 122,-182 104.47,-136.91 101.84,-79.92 102.05,-46.66"/>
<polygon fill="black" stroke="black" points="105.55,-46.39 102.21,-36.34 98.56,-46.28 105.55,-46.39"/>
</g>
<!-- node6&#45;&gt;node5 -->
<g id="edge5" class="edge">
<title>node6:f1&#45;&gt;node5</title>
<path fill="none" stroke="black" d="M169,-218C169,-209.46 169.76,-200.19 170.75,-191.81"/>
<polygon fill="black" stroke="black" points="174.23,-192.16 172.07,-181.79 167.29,-191.25 174.23,-192.16"/>
</g>
<!-- node7 -->
<g id="node8" class="node">
<title>node7</title>
<polygon fill="none" stroke="black" points="237.5,-145.5 237.5,-181.5 300.5,-181.5 300.5,-145.5 237.5,-145.5"/>
<text text-anchor="middle" x="258.5" y="-159.8" font-family="Times,serif" font-size="14.00">exp</text>
<polyline fill="none" stroke="black" points="279.5,-145.5 279.5,-181.5 "/>
<text text-anchor="middle" x="290" y="-159.8" font-family="Times,serif" font-size="14.00"> </text>
</g>
<!-- node7&#45;&gt;node3 -->
<g id="edge6" class="edge">
<title>node7:f0&#45;&gt;node3</title>
<path fill="none" stroke="black" d="M290,-145C290,-115.97 257.2,-102.66 228.8,-96.58"/>
<polygon fill="black" stroke="black" points="229.08,-93.07 218.6,-94.65 227.78,-99.95 229.08,-93.07"/>
</g>
<!-- node8 -->
<g id="node9" class="node">
<title>node8</title>
<polygon fill="none" stroke="black" points="159.5,-291.5 159.5,-327.5 220.5,-327.5 220.5,-291.5 159.5,-291.5"/>
<text text-anchor="middle" x="179.5" y="-305.8" font-family="Times,serif" font-size="14.00">cos</text>
<polyline fill="none" stroke="black" points="199.5,-291.5 199.5,-327.5 "/>
<text text-anchor="middle" x="210" y="-305.8" font-family="Times,serif" font-size="14.00"> </text>
</g>
<!-- node8&#45;&gt;node7 -->
<g id="edge7" class="edge">
<title>node8:f0&#45;&gt;node7</title>
<path fill="none" stroke="black" d="M210,-291C210,-253.23 231.87,-214.56 248.98,-190.09"/>
<polygon fill="black" stroke="black" points="251.99,-191.9 255.02,-181.74 246.32,-187.79 251.99,-191.9"/>
</g>
<!-- node9 -->
<g id="node10" class="node">
<title>node9</title>
<polygon fill="none" stroke="black" points="296.5,-218.5 296.5,-254.5 355.5,-254.5 355.5,-218.5 296.5,-218.5"/>
<text text-anchor="middle" x="315.5" y="-232.8" font-family="Times,serif" font-size="14.00">sin</text>
<polyline fill="none" stroke="black" points="334.5,-218.5 334.5,-254.5 "/>
<text text-anchor="middle" x="345" y="-232.8" font-family="Times,serif" font-size="14.00"> </text>
</g>
<!-- node9&#45;&gt;node7 -->
<g id="edge8" class="edge">
<title>node9:f0&#45;&gt;node7</title>
<path fill="none" stroke="black" d="M345,-218C345,-198.49 328.04,-185.47 310.15,-177.17"/>
<polygon fill="black" stroke="black" points="311.37,-173.88 300.79,-173.25 308.66,-180.34 311.37,-173.88"/>
</g>
<!-- node10 -->
<g id="node11" class="node">
<title>node10</title>
<polygon fill="none" stroke="black" points="277.5,-291.5 277.5,-327.5 336.5,-327.5 336.5,-291.5 277.5,-291.5"/>
<text text-anchor="middle" x="296.5" y="-305.8" font-family="Times,serif" font-size="14.00">sin</text>
<polyline fill="none" stroke="black" points="315.5,-291.5 315.5,-327.5 "/>
<text text-anchor="middle" x="326" y="-305.8" font-family="Times,serif" font-size="14.00"> </text>
</g>
<!-- node10&#45;&gt;node9 -->
<g id="edge9" class="edge">
<title>node10:f0&#45;&gt;node9</title>
<path fill="none" stroke="black" d="M326,-291C326,-282.51 326,-273.26 326,-264.88"/>
<polygon fill="black" stroke="black" points="329.5,-264.85 326,-254.85 322.5,-264.85 329.5,-264.85"/>
</g>
<!-- node11 -->
<g id="node12" class="node">
<title>node11</title>
<polygon fill="none" stroke="black" points="72,-364.5 72,-400.5 242,-400.5 242,-364.5 72,-364.5"/>
<text text-anchor="middle" x="94" y="-378.8" font-family="Times,serif" font-size="14.00">Mul</text>
<polyline fill="none" stroke="black" points="116,-364.5 116,-400.5 "/>
<text text-anchor="middle" x="126.5" y="-378.8" font-family="Times,serif" font-size="14.00"> </text>
<polyline fill="none" stroke="black" points="137,-364.5 137,-400.5 "/>
<text text-anchor="middle" x="147.5" y="-378.8" font-family="Times,serif" font-size="14.00"> </text>
<polyline fill="none" stroke="black" points="158,-364.5 158,-400.5 "/>
<text text-anchor="middle" x="168.5" y="-378.8" font-family="Times,serif" font-size="14.00"> </text>
<polyline fill="none" stroke="black" points="179,-364.5 179,-400.5 "/>
<text text-anchor="middle" x="189.5" y="-378.8" font-family="Times,serif" font-size="14.00"> </text>
<polyline fill="none" stroke="black" points="200,-364.5 200,-400.5 "/>
<text text-anchor="middle" x="210.5" y="-378.8" font-family="Times,serif" font-size="14.00"> </text>
<polyline fill="none" stroke="black" points="221,-364.5 221,-400.5 "/>
<text text-anchor="middle" x="231.5" y="-378.8" font-family="Times,serif" font-size="14.00"> </text>
</g>
<!-- node11&#45;&gt;node0 -->
<g id="edge10" class="edge">
<title>node11:f0&#45;&gt;node0</title>
<path fill="none" stroke="black" d="M126,-364C126,-341.37 104.52,-345.35 90,-328 58.55,-290.41 27,-286.51 27,-237.5 27,-237.5 27,-237.5 27,-162.5 27,-122.07 27,-75.24 27,-46.37"/>
<polygon fill="black" stroke="black" points="30.5,-46.23 27,-36.23 23.5,-46.23 30.5,-46.23"/>
</g>
<!-- node11&#45;&gt;node1 -->
<g id="edge11" class="edge">
<title>node11:f1&#45;&gt;node1</title>
<path fill="none" stroke="black" d="M147,-364C147,-297 65,-304.5 65,-237.5 65,-237.5 65,-237.5 65,-162.5 65,-108.04 115.52,-61.49 148.09,-37.14"/>
<polygon fill="black" stroke="black" points="150.3,-39.86 156.34,-31.15 146.19,-34.19 150.3,-39.86"/>
</g>
<!-- node11&#45;&gt;node6 -->
<g id="edge12" class="edge">
<title>node11:f2&#45;&gt;node6</title>
<path fill="none" stroke="black" d="M169,-364C169,-345.91 155.68,-345.18 150,-328 143.15,-307.31 139.62,-282.82 137.82,-264.54"/>
<polygon fill="black" stroke="black" points="141.31,-264.23 136.95,-254.57 134.34,-264.84 141.31,-264.23"/>
</g>
<!-- node11&#45;&gt;node7 -->
<g id="edge14" class="edge">
<title>node11:f4&#45;&gt;node7</title>
<path fill="none" stroke="black" d="M211,-364C211,-346.11 222.84,-344.79 229,-328 246.1,-281.42 258.11,-224.7 264.26,-191.78"/>
<polygon fill="black" stroke="black" points="267.77,-192.05 266.13,-181.58 260.89,-190.79 267.77,-192.05"/>
</g>
<!-- node11&#45;&gt;node8 -->
<g id="edge13" class="edge">
<title>node11:f3&#45;&gt;node8</title>
<path fill="none" stroke="black" d="M190,-364C190,-355.51 190,-346.26 190,-337.88"/>
<polygon fill="black" stroke="black" points="193.5,-337.85 190,-327.85 186.5,-337.85 193.5,-337.85"/>
</g>
<!-- node11&#45;&gt;node10 -->
<g id="edge15" class="edge">
<title>node11:f5&#45;&gt;node10</title>
<path fill="none" stroke="black" d="M232,-364C232,-353.97 250.02,-340.92 268.39,-330.22"/>
<polygon fill="black" stroke="black" points="270.35,-333.13 277.36,-325.18 266.93,-327.02 270.35,-333.13"/>
</g>
<!-- node12 -->
<g id="node13" class="node">
<title>node12</title>
<polygon fill="none" stroke="black" points="287.5,-364.5 287.5,-400.5 348.5,-400.5 348.5,-364.5 287.5,-364.5"/>
<text text-anchor="middle" x="307.5" y="-378.8" font-family="Times,serif" font-size="14.00">cos</text>
<polyline fill="none" stroke="black" points="327.5,-364.5 327.5,-400.5 "/>
<text text-anchor="middle" x="338" y="-378.8" font-family="Times,serif" font-size="14.00"> </text>
</g>
<!-- node12&#45;&gt;node9 -->
<g id="edge16" class="edge">
<title>node12:f0&#45;&gt;node9</title>
<path fill="none" stroke="black" d="M338,-364C338,-347.61 344.21,-344.29 346,-328 347.79,-311.65 348.93,-307.18 346,-291 344.38,-282.02 341.34,-272.59 338.11,-264.18"/>
<polygon fill="black" stroke="black" points="341.33,-262.81 334.31,-254.88 334.85,-265.46 341.33,-262.81"/>
</g>
<!-- node13 -->
<g id="node14" class="node">
<title>node13</title>
<polygon fill="none" stroke="black" points="158,-437.5 158,-473.5 244,-473.5 244,-437.5 158,-437.5"/>
<text text-anchor="middle" x="180" y="-451.8" font-family="Times,serif" font-size="14.00">Add</text>
<polyline fill="none" stroke="black" points="202,-437.5 202,-473.5 "/>
<text text-anchor="middle" x="212.5" y="-451.8" font-family="Times,serif" font-size="14.00"> </text>
<polyline fill="none" stroke="black" points="223,-437.5 223,-473.5 "/>
<text text-anchor="middle" x="233.5" y="-451.8" font-family="Times,serif" font-size="14.00"> </text>
</g>
<!-- node13&#45;&gt;node11 -->
<g id="edge17" class="edge">
<title>node13:f0&#45;&gt;node11</title>
<path fill="none" stroke="black" d="M213,-437C213,-425.25 206.47,-415.29 197.88,-407.26"/>
<polygon fill="black" stroke="black" points="199.85,-404.35 189.9,-400.71 195.41,-409.76 199.85,-404.35"/>
</g>
<!-- node13&#45;&gt;node12 -->
<g id="edge18" class="edge">
<title>node13:f1&#45;&gt;node12</title>
<path fill="none" stroke="black" d="M234,-437C234,-414.36 255.98,-400.88 277.45,-393.12"/>
<polygon fill="black" stroke="black" points="278.78,-396.37 287.2,-389.94 276.61,-389.71 278.78,-396.37"/>
</g>
</g>
</svg>
