<?xml version="1.0" encoding="UTF-8" standalone="no"?>
<!DOCTYPE svg PUBLIC "-//W3C//DTD SVG 1.1//EN"
 "http://www.w3.org/Graphics/SVG/1.1/DTD/svg11.dtd">
<!-- Generated by graphviz version 2.43.0 (0)
 -->
<!-- Title: G Pages: 1 -->
<svg width="993pt" height="260pt"
 viewBox="0.00 0.00 992.54 260.00" xmlns="http://www.w3.org/2000/svg" xmlns:xlink="http://www.w3.org/1999/xlink">
<g id="graph0" class="graph" transform="scale(1 1) rotate(0) translate(4 256)">
<title>G</title>
<polygon fill="white" stroke="transparent" points="-4,4 -4,-256 988.54,-256 988.54,4 -4,4"/>
<!-- Basic -->
<g id="node1" class="node">
<title>Basic</title>
<ellipse fill="none" stroke="black" cx="675.6" cy="-234" rx="36" ry="18"/>
<text text-anchor="middle" x="675.6" y="-230.3" font-family="Times,serif" font-size="14.00">Basic</text>
</g>
<!-- Expr -->
<g id="node2" class="node">
<title>Expr</title>
<ellipse fill="none" stroke="black" cx="229.6" cy="-162" rx="33.29" ry="18"/>
<text text-anchor="middle" x="229.6" y="-158.3" font-family="Times,serif" font-size="14.00">Expr</text>
</g>
<!-- Basic&#45;&gt;Expr -->
<g id="edge1" class="edge">
<title>Basic&#45;&gt;Expr</title>
<path fill="none" stroke="black" d="M642.07,-227.74C561.87,-215.15 359.07,-183.32 271.23,-169.53"/>
<polygon fill="black" stroke="black" points="271.53,-166.04 261.1,-167.94 270.44,-172.95 271.53,-166.04"/>
</g>
<!-- Set -->
<g id="node3" class="node">
<title>Set</title>
<ellipse fill="none" stroke="black" cx="675.6" cy="-162" rx="27" ry="18"/>
<text text-anchor="middle" x="675.6" y="-158.3" font-family="Times,serif" font-size="14.00">Set</text>
</g>
<!-- Basic&#45;&gt;Set -->
<g id="edge2" class="edge">
<title>Basic&#45;&gt;Set</title>
<path fill="none" stroke="black" d="M675.6,-215.7C675.6,-207.98 675.6,-198.71 675.6,-190.11"/>
<polygon fill="black" stroke="black" points="679.1,-190.1 675.6,-180.1 672.1,-190.1 679.1,-190.1"/>
</g>
<!-- Boolean -->
<g id="node4" class="node">
<title>Boolean</title>
<ellipse fill="none" stroke="black" cx="768.6" cy="-162" rx="48.19" ry="18"/>
<text text-anchor="middle" x="768.6" y="-158.3" font-family="Times,serif" font-size="14.00">Boolean</text>
</g>
<!-- Basic&#45;&gt;Boolean -->
<g id="edge3" class="edge">
<title>Basic&#45;&gt;Boolean</title>
<path fill="none" stroke="black" d="M694.87,-218.5C707.85,-208.72 725.22,-195.65 739.83,-184.65"/>
<polygon fill="black" stroke="black" points="742.18,-187.27 748.06,-178.46 737.97,-181.67 742.18,-187.27"/>
</g>
<!-- Add -->
<g id="node5" class="node">
<title>Add</title>
<ellipse fill="none" stroke="black" cx="28.6" cy="-90" rx="28.7" ry="18"/>
<text text-anchor="middle" x="28.6" y="-86.3" font-family="Times,serif" font-size="14.00">Add</text>
</g>
<!-- Expr&#45;&gt;Add -->
<g id="edge4" class="edge">
<title>Expr&#45;&gt;Add</title>
<path fill="none" stroke="black" d="M200.8,-152.82C167.76,-143.17 112.16,-126.15 65.6,-108 63.77,-107.29 61.9,-106.53 60.03,-105.75"/>
<polygon fill="black" stroke="black" points="61.28,-102.47 50.72,-101.68 58.48,-108.89 61.28,-102.47"/>
</g>
<!-- Mul -->
<g id="node6" class="node">
<title>Mul</title>
<ellipse fill="none" stroke="black" cx="103.6" cy="-90" rx="28.7" ry="18"/>
<text text-anchor="middle" x="103.6" y="-86.3" font-family="Times,serif" font-size="14.00">Mul</text>
</g>
<!-- Expr&#45;&gt;Mul -->
<g id="edge5" class="edge">
<title>Expr&#45;&gt;Mul</title>
<path fill="none" stroke="black" d="M207.36,-148.65C186.75,-137.19 155.93,-120.07 133.23,-107.46"/>
<polygon fill="black" stroke="black" points="134.8,-104.33 124.36,-102.53 131.4,-110.45 134.8,-104.33"/>
</g>
<!-- Pow -->
<g id="node7" class="node">
<title>Pow</title>
<ellipse fill="none" stroke="black" cx="179.6" cy="-90" rx="29.8" ry="18"/>
<text text-anchor="middle" x="179.6" y="-86.3" font-family="Times,serif" font-size="14.00">Pow</text>
</g>
<!-- Expr&#45;&gt;Pow -->
<g id="edge6" class="edge">
<title>Expr&#45;&gt;Pow</title>
<path fill="none" stroke="black" d="M218,-144.76C211.75,-136.02 203.92,-125.05 196.96,-115.31"/>
<polygon fill="black" stroke="black" points="199.79,-113.25 191.13,-107.15 194.1,-117.32 199.79,-113.25"/>
</g>
<!-- Function -->
<g id="node8" class="node">
<title>Function</title>
<ellipse fill="none" stroke="black" cx="279.6" cy="-90" rx="51.99" ry="18"/>
<text text-anchor="middle" x="279.6" y="-86.3" font-family="Times,serif" font-size="14.00">Function</text>
</g>
<!-- Expr&#45;&gt;Function -->
<g id="edge7" class="edge">
<title>Expr&#45;&gt;Function</title>
<path fill="none" stroke="black" d="M241.19,-144.76C247.29,-136.23 254.9,-125.58 261.73,-116.02"/>
<polygon fill="black" stroke="black" points="264.75,-117.81 267.72,-107.63 259.06,-113.74 264.75,-117.81"/>
</g>
<!-- Number -->
<g id="node9" class="node">
<title>Number</title>
<ellipse fill="none" stroke="black" cx="419.6" cy="-90" rx="48.99" ry="18"/>
<text text-anchor="middle" x="419.6" y="-86.3" font-family="Times,serif" font-size="14.00">Number</text>
</g>
<!-- Expr&#45;&gt;Number -->
<g id="edge8" class="edge">
<title>Expr&#45;&gt;Number</title>
<path fill="none" stroke="black" d="M256.42,-151.12C287.69,-139.6 339.78,-120.41 376.69,-106.81"/>
<polygon fill="black" stroke="black" points="378.03,-110.05 386.2,-103.3 375.61,-103.48 378.03,-110.05"/>
</g>
<!-- FiniteSet -->
<g id="node17" class="node">
<title>FiniteSet</title>
<ellipse fill="none" stroke="black" cx="540.6" cy="-90" rx="53.89" ry="18"/>
<text text-anchor="middle" x="540.6" y="-86.3" font-family="Times,serif" font-size="14.00">FiniteSet</text>
</g>
<!-- Set&#45;&gt;FiniteSet -->
<g id="edge16" class="edge">
<title>Set&#45;&gt;FiniteSet</title>
<path fill="none" stroke="black" d="M654.8,-150.22C634.34,-139.61 602.64,-123.17 577.83,-110.31"/>
<polygon fill="black" stroke="black" points="579.19,-107.07 568.7,-105.57 575.96,-113.28 579.19,-107.07"/>
</g>
<!-- ProductSet -->
<g id="node18" class="node">
<title>ProductSet</title>
<ellipse fill="none" stroke="black" cx="675.6" cy="-90" rx="63.09" ry="18"/>
<text text-anchor="middle" x="675.6" y="-86.3" font-family="Times,serif" font-size="14.00">ProductSet</text>
</g>
<!-- Set&#45;&gt;ProductSet -->
<g id="edge17" class="edge">
<title>Set&#45;&gt;ProductSet</title>
<path fill="none" stroke="black" d="M675.6,-143.7C675.6,-135.98 675.6,-126.71 675.6,-118.11"/>
<polygon fill="black" stroke="black" points="679.1,-118.1 675.6,-108.1 672.1,-118.1 679.1,-118.1"/>
</g>
<!-- Union -->
<g id="node19" class="node">
<title>Union</title>
<ellipse fill="none" stroke="black" cx="794.6" cy="-90" rx="38.19" ry="18"/>
<text text-anchor="middle" x="794.6" y="-86.3" font-family="Times,serif" font-size="14.00">Union</text>
</g>
<!-- Set&#45;&gt;Union -->
<g id="edge18" class="edge">
<title>Set&#45;&gt;Union</title>
<path fill="none" stroke="black" d="M695.25,-149.44C713.62,-138.64 741.36,-122.31 762.87,-109.66"/>
<polygon fill="black" stroke="black" points="764.81,-112.58 771.66,-104.49 761.26,-106.55 764.81,-112.58"/>
</g>
<!-- Intersection -->
<g id="node20" class="node">
<title>Intersection</title>
<ellipse fill="none" stroke="black" cx="917.6" cy="-90" rx="66.89" ry="18"/>
<text text-anchor="middle" x="917.6" y="-86.3" font-family="Times,serif" font-size="14.00">Intersection</text>
</g>
<!-- Set&#45;&gt;Intersection -->
<g id="edge19" class="edge">
<title>Set&#45;&gt;Intersection</title>
<path fill="none" stroke="black" d="M696.63,-150.25C701.48,-148.01 706.66,-145.78 711.6,-144 738.46,-134.3 808.07,-116.97 858.97,-104.77"/>
<polygon fill="black" stroke="black" points="859.96,-108.14 868.88,-102.41 858.34,-101.33 859.96,-108.14"/>
</g>
<!-- cos -->
<g id="node10" class="node">
<title>cos</title>
<ellipse fill="none" stroke="black" cx="113.6" cy="-18" rx="27" ry="18"/>
<text text-anchor="middle" x="113.6" y="-14.3" font-family="Times,serif" font-size="14.00">cos</text>
</g>
<!-- Function&#45;&gt;cos -->
<g id="edge9" class="edge">
<title>Function&#45;&gt;cos</title>
<path fill="none" stroke="black" d="M246.53,-76.09C220.13,-65.65 182.29,-50.37 149.6,-36 147.79,-35.21 145.95,-34.38 144.09,-33.54"/>
<polygon fill="black" stroke="black" points="145.38,-30.28 134.83,-29.26 142.44,-36.63 145.38,-30.28"/>
</g>
<!-- sin -->
<g id="node11" class="node">
<title>sin</title>
<ellipse fill="none" stroke="black" cx="185.6" cy="-18" rx="27" ry="18"/>
<text text-anchor="middle" x="185.6" y="-14.3" font-family="Times,serif" font-size="14.00">sin</text>
</g>
<!-- Function&#45;&gt;sin -->
<g id="edge10" class="edge">
<title>Function&#45;&gt;sin</title>
<path fill="none" stroke="black" d="M258.74,-73.46C244.72,-63.03 226.16,-49.2 211.24,-38.09"/>
<polygon fill="black" stroke="black" points="213.05,-35.08 202.94,-31.91 208.87,-40.69 213.05,-35.08"/>
</g>
<!-- exp -->
<g id="node12" class="node">
<title>exp</title>
<ellipse fill="none" stroke="black" cx="257.6" cy="-18" rx="27.1" ry="18"/>
<text text-anchor="middle" x="257.6" y="-14.3" font-family="Times,serif" font-size="14.00">exp</text>
</g>
<!-- Function&#45;&gt;exp -->
<g id="edge11" class="edge">
<title>Function&#45;&gt;exp</title>
<path fill="none" stroke="black" d="M274.27,-72.05C271.76,-64.06 268.7,-54.33 265.89,-45.4"/>
<polygon fill="black" stroke="black" points="269.21,-44.28 262.87,-35.79 262.53,-46.38 269.21,-44.28"/>
</g>
<!-- tan -->
<g id="node13" class="node">
<title>tan</title>
<ellipse fill="none" stroke="black" cx="329.6" cy="-18" rx="27" ry="18"/>
<text text-anchor="middle" x="329.6" y="-14.3" font-family="Times,serif" font-size="14.00">tan</text>
</g>
<!-- Function&#45;&gt;tan -->
<g id="edge12" class="edge">
<title>Function&#45;&gt;tan</title>
<path fill="none" stroke="black" d="M291.45,-72.41C297.79,-63.53 305.71,-52.44 312.69,-42.67"/>
<polygon fill="black" stroke="black" points="315.55,-44.68 318.52,-34.51 309.86,-40.61 315.55,-44.68"/>
</g>
<!-- Integer -->
<g id="node14" class="node">
<title>Integer</title>
<ellipse fill="none" stroke="black" cx="419.6" cy="-18" rx="44.69" ry="18"/>
<text text-anchor="middle" x="419.6" y="-14.3" font-family="Times,serif" font-size="14.00">Integer</text>
</g>
<!-- Number&#45;&gt;Integer -->
<g id="edge13" class="edge">
<title>Number&#45;&gt;Integer</title>
<path fill="none" stroke="black" d="M419.6,-71.7C419.6,-63.98 419.6,-54.71 419.6,-46.11"/>
<polygon fill="black" stroke="black" points="423.1,-46.1 419.6,-36.1 416.1,-46.1 423.1,-46.1"/>
</g>
<!-- Rational -->
<g id="node15" class="node">
<title>Rational</title>
<ellipse fill="none" stroke="black" cx="531.6" cy="-18" rx="49.29" ry="18"/>
<text text-anchor="middle" x="531.6" y="-14.3" font-family="Times,serif" font-size="14.00">Rational</text>
</g>
<!-- Number&#45;&gt;Rational -->
<g id="edge14" class="edge">
<title>Number&#45;&gt;Rational</title>
<path fill="none" stroke="black" d="M443.35,-74.15C459.54,-64.04 481.17,-50.52 498.97,-39.39"/>
<polygon fill="black" stroke="black" points="501.25,-42.09 507.88,-33.82 497.54,-36.16 501.25,-42.09"/>
</g>
<!-- Float -->
<g id="node16" class="node">
<title>Float</title>
<ellipse fill="none" stroke="black" cx="633.6" cy="-18" rx="34.39" ry="18"/>
<text text-anchor="middle" x="633.6" y="-14.3" font-family="Times,serif" font-size="14.00">Float</text>
</g>
<!-- Number&#45;&gt;Float -->
<g id="edge15" class="edge">
<title>Number&#45;&gt;Float</title>
<path fill="none" stroke="black" d="M456.64,-78.23C491.23,-67.98 544.2,-51.83 589.6,-36 592.12,-35.12 594.71,-34.19 597.32,-33.23"/>
<polygon fill="black" stroke="black" points="598.57,-36.5 606.71,-29.71 596.12,-29.95 598.57,-36.5"/>
</g>
</g>
</svg>
